<svg xmlns="http://www.w3.org/2000/svg" viewBox="0 0 408.32 111.36">
  <defs>
    <style>
      .cls-1{fill:#4273b3;}
      .cls-2{fill:#1c1c1c;}
      .cls-3{fill:#fff;}
    </style>
  </defs>
  <g id="Capa_2" data-name="Capa 2">
    <g id="Capa_1-2" data-name="Capa 1">
      <path class="cls-1" d="M204.67,82.47c-.27,2,1,2.34,1.62,2.34a2.48,2.48,0,0,0,2.34-1.93c.22-1.24-.77-1.55-2.64-2.36-1-.4-3.4-1.3-2.89-4.06s3.27-4.31,5.63-4.31c1.93,0,4.29,1,3.82,4.25h-2.9c0-.67,0-1.79-1.47-1.79a2.14,2.14,0,0,0-2.11,1.65c-.21,1.09.51,1.36,2.8,2.39,2,1,3.07,2,2.7,4.09a5.46,5.46,0,0,1-5.71,4.53c-3.31,0-4.65-2-4.1-4.8Z"/>
      <path class="cls-1" d="M224.54,87h-2.42l.27-1.44a4.29,4.29,0,0,1-3.7,1.77c-3.54,0-3.72-2.72-3.36-4.61l1.22-6.53h2.57L218,82.07c-.29,1.6,0,2.86,1.85,2.84s2.7-1.22,3-2.76l1.1-6h2.58Z"/>
      <path class="cls-1" d="M231.08,76.19h2.42l-.3,1.57a5.54,5.54,0,0,1,4.18-1.91c3.78,0,4.78,3.21,4.29,5.83a6.79,6.79,0,0,1-6.4,5.65,3.38,3.38,0,0,1-3.35-1.77L231.65,87l-.71,3.78h-2.58Zm8,5.39a2.65,2.65,0,0,0-2.7-3.33,3.87,3.87,0,0,0-2.52,1,4.07,4.07,0,0,0-1.36,2.38A2.79,2.79,0,0,0,233,84a2.71,2.71,0,0,0,2.15,1,4.12,4.12,0,0,0,3.92-3.33Z"/>
      <path class="cls-1" d="M246.67,76.19h2.42l-.29,1.57A5.52,5.52,0,0,1,253,75.85c3.78,0,4.79,3.21,4.29,5.83a6.79,6.79,0,0,1-6.4,5.65,3.37,3.37,0,0,1-3.34-1.77L247.24,87l-.71,3.78H244Zm8,5.39A2.64,2.64,0,0,0,252,78.25a3.85,3.85,0,0,0-2.52,1,4,4,0,0,0-1.36,2.38,2.76,2.76,0,0,0,.51,2.34,2.68,2.68,0,0,0,2.15,1,4.11,4.11,0,0,0,3.91-3.33Z"/>
      <path class="cls-1" d="M260.69,81.56a7.06,7.06,0,0,1,6.85-5.69c3.76,0,5.24,2.93,4.73,5.71a7.07,7.07,0,0,1-6.86,5.73c-3.76,0-5.23-2.93-4.72-5.73Zm2.58,0a2.59,2.59,0,0,0,2.6,3.29,4,4,0,0,0,3.8-3.31,2.59,2.59,0,0,0-2.58-3.31,4,4,0,0,0-3.82,3.31Z"/>
      <path class="cls-1" d="M277.21,76.19h2.44l-.27,1.41a3.85,3.85,0,0,1,3.32-1.75l-.49,2.6h-.12a3,3,0,0,0-3.23,2.72L277.78,87H275.2Z"/>
      <path class="cls-1" d="M286.84,78.17h-1.79l.37-2h1.79l.69-3.76h2.58l-.69,3.76h1.85l-.37,2h-1.85L287.78,87H285.2Z"/>
      <path class="cls-1" d="M316.13,82.11A9.18,9.18,0,0,1,308,87.27c-4.45,0-7-3.52-6.22-7.58a9.43,9.43,0,0,1,9-7.54A5.88,5.88,0,0,1,317,77.39h-3.09a3.57,3.57,0,0,0-3.58-2.66,6,6,0,0,0-5.58,5c-.49,2.66,1,5,3.77,5A5.75,5.75,0,0,0,313,82.11Z"/>
      <path class="cls-1" d="M321.86,82.45a2.4,2.4,0,0,0,2.64,2.68,3.43,3.43,0,0,0,2.86-1.46H330a8,8,0,0,1-2.67,2.72,6.24,6.24,0,0,1-3.27.94,4.59,4.59,0,0,1-4.65-5.71,7.19,7.19,0,0,1,6.74-5.77,4.53,4.53,0,0,1,3.72,1.66,5.16,5.16,0,0,1,.69,4.94Zm6.52-2A2.37,2.37,0,0,0,325.76,78a3.67,3.67,0,0,0-3.5,2.44Z"/>
      <path class="cls-1" d="M335.67,76.19h2.42c-.1.47-.18.92-.3,1.43a4.38,4.38,0,0,1,3.7-1.77c3.53,0,3.69,2.72,3.33,4.63L343.62,87H341l1.09-5.87c.29-1.62,0-2.86-1.82-2.86a3,3,0,0,0-3,2.76l-1.1,6h-2.58Z"/>
      <path class="cls-1" d="M350.45,78.17h-1.79l.38-2h1.79l.69-3.76h2.58l-.69,3.76h1.85l-.38,2H353L351.4,87h-2.58Z"/>
      <path class="cls-1" d="M359,82.45a2.39,2.39,0,0,0,2.64,2.68,3.42,3.42,0,0,0,2.85-1.46h2.66a8,8,0,0,1-2.68,2.72,6.18,6.18,0,0,1-3.26.94,4.59,4.59,0,0,1-4.65-5.71,7.17,7.17,0,0,1,6.73-5.77A4.51,4.51,0,0,1,367,77.51a5.14,5.14,0,0,1,.69,4.94Zm6.52-2A2.37,2.37,0,0,0,362.9,78a3.7,3.7,0,0,0-3.51,2.44Z"/>
      <path class="cls-1" d="M372.78,76.19h2.44L375,77.6a3.86,3.86,0,0,1,3.32-1.75l-.49,2.6h-.12a2.93,2.93,0,0,0-3.22,2.72L373.35,87h-2.58Z"/>
      <path class="cls-2" d="M128.65,24.94H144.5a23.82,23.82,0,0,1,10,1.92,14.57,14.57,0,0,1,6.44,5.49,15.46,15.46,0,0,1,2.24,8.38,22.33,22.33,0,0,1-3,11.61,20.21,20.21,0,0,1-8.31,7.73,26.59,26.59,0,0,1-12.3,2.73h-18.5Zm11.2,30.67a15.22,15.22,0,0,0,7.7-1.87,12.52,12.52,0,0,0,5-5.14,15.58,15.58,0,0,0,1.73-7.38,8.39,8.39,0,0,0-2.76-6.68c-1.84-1.6-4.51-2.41-8-2.41H136L131.3,55.61Z"/>
      <path class="cls-2" d="M200,33.7l-5.79,29.1h-8l.55-2.86a12.78,12.78,0,0,1-8.93,3.3,13,13,0,0,1-6.28-1.57A11.74,11.74,0,0,1,167,57.15a13.69,13.69,0,0,1-1.7-6.95,17.59,17.59,0,0,1,2.14-8.68,15.75,15.75,0,0,1,5.81-6.06,15.57,15.57,0,0,1,8.12-2.19q6.71,0,9.46,4.38l.76-3.95ZM184.85,55a8.22,8.22,0,0,0,3-3.38,11,11,0,0,0,1.08-5,6.29,6.29,0,0,0-1.75-4.7,6.68,6.68,0,0,0-4.9-1.73,8.22,8.22,0,0,0-4.44,1.21,8.42,8.42,0,0,0-3,3.38,11.05,11.05,0,0,0-1.08,5,6.32,6.32,0,0,0,1.76,4.71,6.7,6.7,0,0,0,4.9,1.73A8.21,8.21,0,0,0,184.85,55Z"/>
      <path class="cls-2" d="M204.89,62.4a15.61,15.61,0,0,1-5.27-2.19l3.25-6.12a16.42,16.42,0,0,0,4.62,2,20.64,20.64,0,0,0,5.49.75,9.63,9.63,0,0,0,4.28-.73,2.27,2.27,0,0,0,1.4-2.08,1.65,1.65,0,0,0-1.24-1.57,27.44,27.44,0,0,0-4-1,36.2,36.2,0,0,1-5.17-1.29,8.66,8.66,0,0,1-3.52-2.3,6.17,6.17,0,0,1-1.49-4.36,8.58,8.58,0,0,1,4-7.52q4-2.7,10.57-2.7a26.28,26.28,0,0,1,5.9.65,17.75,17.75,0,0,1,4.87,1.78l-3,6.17A16,16,0,0,0,217,39.65a8.71,8.71,0,0,0-4.19.81,2.38,2.38,0,0,0-1.43,2.06,1.72,1.72,0,0,0,1.24,1.65,26,26,0,0,0,4.17,1.11,38.12,38.12,0,0,1,5.06,1.27,8.36,8.36,0,0,1,3.43,2.24,6,6,0,0,1,1.46,4.28,8.47,8.47,0,0,1-4.08,7.52,19.2,19.2,0,0,1-10.58,2.65A29.72,29.72,0,0,1,204.89,62.4Z"/>
      <path class="cls-2" d="M260.1,35.86A9.44,9.44,0,0,1,263,43.22a16.21,16.21,0,0,1-.37,3.46L259.34,62.8H250.9L254,47.23a9,9,0,0,0,.22-2A4.57,4.57,0,0,0,253,41.76a5.22,5.22,0,0,0-3.73-1.19,7.83,7.83,0,0,0-5.38,1.87A9.73,9.73,0,0,0,241,48L238.08,62.8h-8.44l8-40.13h8.44l-2.71,13.68a13.67,13.67,0,0,1,9-3.08A11.09,11.09,0,0,1,260.1,35.86Z"/>
      <path class="cls-2" d="M324.09,24.94,316.52,62.8h-8.76l3.08-15.41H293.69L290.61,62.8h-8.82l7.57-37.86h8.82l-3,14.87h17.14l3-14.87Z"/>
      <path class="cls-2" d="M355.52,50.52H333.23q.43,6,7.52,6a12.85,12.85,0,0,0,4.25-.71,10.78,10.78,0,0,0,3.54-2l3.52,5.57a16.75,16.75,0,0,1-5.57,2.92,22.15,22.15,0,0,1-6.6,1,18.13,18.13,0,0,1-7.87-1.6,11.8,11.8,0,0,1-5.2-4.57A12.91,12.91,0,0,1,325,50.2a17.3,17.3,0,0,1,2.19-8.68,15.7,15.7,0,0,1,6.09-6.06,17.76,17.76,0,0,1,8.87-2.19,16.06,16.06,0,0,1,7.33,1.57,11.29,11.29,0,0,1,4.81,4.49A13.11,13.11,0,0,1,356,46.09,22.35,22.35,0,0,1,355.52,50.52Zm-18.77-9.33a8.61,8.61,0,0,0-2.92,4.41h14.44a5.65,5.65,0,0,0-1.76-4.41,6.78,6.78,0,0,0-4.73-1.59A8,8,0,0,0,336.75,41.19Z"/>
      <path class="cls-2" d="M365.85,22.67h8.44l-8,40.13h-8.43Z"/>
      <path class="cls-2" d="M402,34.84a11.59,11.59,0,0,1,4.6,4.51,13.65,13.65,0,0,1,1.71,7A17.7,17.7,0,0,1,406.18,55a15.7,15.7,0,0,1-14,8.25q-6.66,0-9.42-4.33L379.92,73.3h-8.44l7.89-39.6h8l-.59,2.87a12.75,12.75,0,0,1,8.92-3.3A12.94,12.94,0,0,1,402,34.84ZM395.66,55a8.22,8.22,0,0,0,3-3.38,11,11,0,0,0,1.08-5A6.3,6.3,0,0,0,398,42a6.64,6.64,0,0,0-4.89-1.73,8.06,8.06,0,0,0-4.38,1.21,8.28,8.28,0,0,0-3,3.38,10.93,10.93,0,0,0-1.09,5,6.38,6.38,0,0,0,1.73,4.71,6.61,6.61,0,0,0,4.87,1.73A8.22,8.22,0,0,0,395.66,55Z"/>
      <rect class="cls-2" x="95.71" y="79.64" width="99.59" height="1.49"/>
      <path class="cls-1" d="M111.36,55.68A55.68,55.68,0,1,1,55.68,0,55.68,55.68,0,0,1,111.36,55.68Z"/>
      <path class="cls-3" d="M51.54,55.65c.84-3.51,1.19-4.95,1.19-4.95H27.06c-6.84,0-7.82,4.45-8.46,7.15L17.4,62.8H43.08c6.83,0,7.82-4.45,8.46-7.15"/>
      <path class="cls-3" d="M65.8,26.27H38.56L36.34,38.9H60.4c13.35,0,17,4.38,14.63,17.74s-7.5,17.74-20.84,17.74H30.09L27.86,87H55.1c20.84,0,32-9.52,35.65-30.36s-4.11-30.37-25-30.37"/>
    </g>
  </g>
</svg>